<?xml version="1.0" encoding="utf-8"?>
<!-- Generator: Adobe Illustrator 16.0.0, SVG Export Plug-In . SVG Version: 6.00 Build 0)  -->
<!DOCTYPE svg PUBLIC "-//W3C//DTD SVG 1.1//EN" "http://www.w3.org/Graphics/SVG/1.1/DTD/svg11.dtd">
<svg version="1.1" id="图层_1" xmlns="http://www.w3.org/2000/svg" xmlns:xlink="http://www.w3.org/1999/xlink" x="0px" y="0px"
	 width="270px" height="150px" viewBox="0 0 270 150" enable-background="new 0 0 270 150" xml:space="preserve">
<g id="图层_1_1_">
	<polygon fill="#010202" points="127.782,112.961 63.776,149.912 0.035,112.98 0,39.055 64.004,2.232 127.896,39.25 	"/>
</g>
<g id="图层_2">
	<polygon fill="#393A39" points="63.8,73.467 0,39.055 64.038,2.232 127.896,39.25 	"/>
</g>
<g id="图层_3">
	<polygon fill="#42A95E" points="63.788,73.648 21.433,50.646 21.297,99.436 63.827,121.77 	"/>
	<polygon fill="#FBD502" points="106.097,99.436 106.259,50.801 63.788,73.648 63.827,121.77 	"/>
	<polygon fill="#EC403D" points="106.259,50.801 63.132,26.266 21.433,50.646 63.788,73.648 	"/>
	<line fill="none" x1="86.538" y1="-8150" x2="86.538" y2="8233"/>
</g>
<g id="图层_4">
	<g>
		<path d="M164.594,84.281h-10.776v25.799h-13.861V52.805h13.861v25.799h10.776V84.281z M180.771,110.08h-13.861V84.281h-3.754
			v-5.68h3.754V52.803h13.861V110.08z"/>
		<path d="M209.192,58.482h-9.845v20.119h9.845v5.68h-9.845V104.4h9.845v5.68h-23.705V52.805h23.705V58.482z M222.452,58.482
			h-14.055v-5.68h14.055V58.482z M213.5,84.281h-5.104v-5.68h5.104V84.281z M222.452,110.08h-14.055v-5.68h14.055V110.08z"/>
		<path d="M242.983,100.303l-3.634,9.777h-13.34l10.013-25.51L242.983,100.303z M265.288,110.08h-13.406l-25.59-57.275h13.197
			L265.288,110.08z M254.264,73.986l-6.399-13.578l3.947-7.604h13.122L254.264,73.986z"/>
	</g>
</g>
</svg>
