<?xml version="1.0" encoding="utf-8"?>
<!-- Generator: Adobe Illustrator 16.0.0, SVG Export Plug-In . SVG Version: 6.00 Build 0)  -->
<!DOCTYPE svg PUBLIC "-//W3C//DTD SVG 1.1//EN" "http://www.w3.org/Graphics/SVG/1.1/DTD/svg11.dtd">
<svg version="1.1" id="hexium_logo_big_text" xmlns="http://www.w3.org/2000/svg" xmlns:xlink="http://www.w3.org/1999/xlink" x="0px" y="0px"
	 width="634px" height="150px" viewBox="0 0 634 150" enable-background="new 0 0 634 150" xml:space="preserve">
<g id="border">
	<polygon fill="#010202" points="127.782,112.961 63.776,149.912 0.035,112.98 0,39.055 64.004,2.232 127.896,39.25 	"/>
</g>
<g id="border_top">
	<polygon fill="#393A39" points="63.8,73.467 0,39.055 64.038,2.232 127.896,39.25 	"/>
</g>
<g id="center">
	<polygon fill="#42A95E" points="63.788,73.648 21.433,50.646 21.297,99.436 63.827,121.77 	"/>
	<polygon fill="#FBD502" points="106.097,99.436 106.259,50.801 63.788,73.648 63.827,121.77 	"/>
	<polygon fill="#EC403D" points="106.259,50.801 63.132,26.266 21.433,50.646 63.788,73.648 	"/>
	<line fill="none" x1="86.538" y1="-8150" x2="86.538" y2="8233"/>
</g>
<g>
	<path d="M176.22,81.35h-7.92v48.24h-25.92V22.49h25.92v48.24h7.92V81.35z M218.7,129.59h-25.92V81.35h-7.021v-10.62h7.021V22.49
		h25.92V129.59z"/>
	<path d="M261.358,33.109h-7.92v37.62h7.92v10.62h-7.92v37.62h7.92v10.62h-33.84V22.49h33.84V33.109z M296.638,33.109h-26.279V22.49
		h26.279V33.109z M279.898,81.35h-9.54v-10.62h9.54V81.35z M296.638,129.59h-26.279v-10.62h26.279V129.59z"/>
	<path d="M333.77,111.303l-6.789,18.287h-24.944l18.72-47.7L333.77,111.303z M375.479,129.59h-25.07l-47.847-107.1h24.675
		L375.479,129.59z M354.866,62.101l-11.97-25.391l7.38-14.22h24.539L354.866,62.101z"/>
	<path d="M408.055,129.59h-25.92V22.49h25.92V129.59z"/>
	<path d="M451.073,129.59h-10.62c-7.2,0-13.081-1.475-17.64-4.424c-3.482-2.242-5.221-4.307-5.221-6.196V22.49h25.921v96.48h7.56
		V129.59z M493.913,22.49v96.48c0,7.081-7.56,10.62-22.68,10.62h-11.16v-10.62h7.92V22.49H493.913z"/>
	<path d="M532.792,129.59h-25.92V22.49h8.28l17.64,54.813V129.59z M583.904,129.59h-27.175l-19.797-64.367
		c-1.322-3.848-6.183-18.09-14.583-42.733h23.769L583.904,129.59z M617.212,22.49l-29.702,95.575l-13.832-37.365l18.275-58.209
		H617.212z M633.593,129.59h-25.921V74.597l17.28-52.107h8.641V129.59z"/>
</g>
</svg>
