<?xml version="1.0" encoding="utf-8"?>
<!-- Generator: Adobe Illustrator 13.0.0, SVG Export Plug-In . SVG Version: 6.00 Build 14948)  -->
<!DOCTYPE svg PUBLIC "-//W3C//DTD SVG 1.1//EN" "http://www.w3.org/Graphics/SVG/1.1/DTD/svg11.dtd">
<svg version="1.1" id="svg3030" xmlns:svg="http://www.w3.org/2000/svg"
	 xmlns="http://www.w3.org/2000/svg" xmlns:xlink="http://www.w3.org/1999/xlink" x="0px" y="0px" width="590.969px"
	 height="159.024px" viewBox="0 0 590.969 159.024" enable-background="new 0 0 590.969 159.024" xml:space="preserve">
<g id="layer1" transform="translate(-115.94417,-501.42131)">
	<path id="path22" fill="#404137" d="M414.481,501.422c-0.409,0.005-0.824,0.103-1.189,0.317c-0.729,0.428-1.188,1.215-1.188,2.061
		v60.643c0,0.596-0.277,1.128-0.793,1.427c-0.517,0.299-1.146,0.299-1.665,0l-9.908-5.708c-1.477-0.852-3.28-0.851-4.757,0
		l-39.557,22.83c-1.479,0.854-2.378,2.494-2.378,4.201v45.66c0,1.706,0.9,3.268,2.378,4.122l39.557,22.831
		c1.479,0.853,3.277,0.853,4.757,0l39.556-22.831c1.478-0.854,2.378-2.416,2.378-4.122V519.02c0-1.732-0.944-3.357-2.457-4.202
		l-23.544-13.159C415.3,501.453,414.89,501.417,414.481,501.422L414.481,501.422z M160.019,558.418
		c-0.754,0.03-1.463,0.162-2.14,0.555l-39.557,22.83c-1.474,0.852-2.378,2.404-2.378,4.122l0.079,61.276
		c0,0.854,0.439,1.645,1.188,2.063c0.734,0.439,1.646,0.439,2.379,0l23.464-13.477c1.486-0.883,2.457-2.42,2.457-4.123v-28.616
		c0-1.707,0.898-3.274,2.379-4.122l9.988-5.787c0.745-0.431,1.546-0.634,2.378-0.634c0.815,0,1.653,0.202,2.378,0.634l9.988,5.787
		c1.48,0.848,2.378,2.415,2.378,4.122v28.616c0,1.703,0.98,3.25,2.458,4.123l23.464,13.477c0.737,0.439,1.647,0.439,2.378,0
		c0.729-0.418,1.189-1.209,1.189-2.063l0.079-61.276c0-1.718-0.895-3.27-2.378-4.122l-39.557-22.83
		c-0.669-0.393-1.381-0.524-2.141-0.555H160.019L160.019,558.418z M515.472,558.973c-0.826-0.001-1.636,0.208-2.378,0.634
		l-39.557,22.831c-1.478,0.854-2.378,2.414-2.378,4.121v45.661c0,1.717,0.967,3.273,2.457,4.122l39.24,22.354
		c1.448,0.827,3.218,0.89,4.677,0.079l23.781-13.239c0.755-0.419,1.265-1.2,1.269-2.061c0.005-0.861-0.444-1.633-1.189-2.062
		l-39.794-22.83c-0.745-0.425-1.269-1.285-1.269-2.141v-14.269c0-0.853,0.529-1.635,1.269-2.061l12.366-7.135
		c0.735-0.426,1.64-0.426,2.378,0l12.366,7.135c0.739,0.426,1.189,1.208,1.189,2.061v11.257c0,0.854,0.45,1.635,1.188,2.061
		c0.742,0.428,1.64,0.43,2.379,0l23.702-13.793c1.471-0.854,2.378-2.42,2.378-4.122v-11.019c0-1.702-0.903-3.268-2.378-4.122
		l-39.319-22.831C517.109,559.177,516.298,558.973,515.472,558.973L515.472,558.973z M397.199,593.059
		c0.206,0,0.449,0.051,0.634,0.157l13.556,7.848c0.368,0.213,0.634,0.605,0.634,1.031v15.695c0,0.426-0.264,0.818-0.634,1.03
		l-13.556,7.849c-0.369,0.21-0.819,0.21-1.188,0l-13.556-7.849c-0.369-0.213-0.634-0.604-0.634-1.03v-15.695
		c0-0.426,0.266-0.816,0.634-1.031l13.556-7.847C396.829,593.111,396.993,593.06,397.199,593.059L397.199,593.059z"/>
	<path id="path28" fill="#83CD29" d="M633.982,557.863c-1.371,0-2.704,0.284-3.884,0.951l-37.337,21.562
		c-2.416,1.392-3.885,4.021-3.885,6.817v43.045c0,2.795,1.469,5.421,3.885,6.816l9.75,5.629c4.737,2.334,6.484,2.299,8.641,2.299
		c7.015,0,11.019-4.256,11.019-11.653V590.84c0-0.601-0.52-1.031-1.109-1.031h-4.677c-0.6,0-1.11,0.431-1.11,1.031v42.489
		c0,3.278-3.415,6.576-8.957,3.806l-10.147-5.945c-0.358-0.195-0.634-0.541-0.634-0.951v-43.045c0-0.408,0.272-0.824,0.634-1.03
		l37.258-21.483c0.349-0.2,0.765-0.2,1.11,0l37.257,21.483c0.355,0.213,0.635,0.609,0.635,1.03v43.045
		c0,0.41-0.206,0.832-0.555,1.029l-37.337,21.483c-0.32,0.19-0.762,0.19-1.11,0l-9.592-5.708c-0.285-0.167-0.675-0.154-0.951,0
		c-2.647,1.502-3.146,1.676-5.628,2.537c-0.612,0.213-1.541,0.545,0.316,1.586l12.525,7.371c1.192,0.69,2.521,1.031,3.884,1.031
		c1.383,0,2.692-0.341,3.885-1.031l37.337-21.482c2.416-1.405,3.884-4.021,3.884-6.816v-43.045c0-2.797-1.468-5.42-3.884-6.817
		l-37.337-21.562C636.697,558.146,635.355,557.863,633.982,557.863L633.982,557.863z M278.847,558.735
		c-0.824,0-1.64,0.208-2.378,0.634l-39.557,22.751c-1.479,0.853-2.378,2.495-2.378,4.201v45.66c0,1.708,0.9,3.269,2.378,4.122
		l39.557,22.83c1.479,0.854,3.277,0.854,4.756,0l39.557-22.83c1.477-0.854,2.378-2.414,2.378-4.122v-45.66
		c0-1.708-0.898-3.349-2.378-4.201l-39.557-22.751C280.487,558.943,279.671,558.735,278.847,558.735z M689.394,558.973v1.11h3.092
		v8.165h1.268v-8.165h3.171v-1.11H689.394z M698.034,558.973v9.275h1.189v-5.47c0-0.223,0.01-0.568,0-1.03
		c-0.016-0.471,0-0.881,0-1.11v-0.238l2.615,7.848h1.269l2.695-7.848c0,0.499-0.066,0.981-0.079,1.427c-0.005,0.434,0,0.76,0,0.951
		v5.47h1.189v-9.274h-1.744l-2.695,7.848l-2.616-7.848L698.034,558.973L698.034,558.973z M643.971,588.621
		c-10.632,0-16.964,4.524-16.964,12.049c0,8.163,6.285,10.406,16.488,11.415c12.208,1.195,13.159,2.987,13.159,5.391
		c0,4.168-3.323,5.945-11.177,5.945c-9.868,0-12.037-2.464-12.763-7.372c-0.086-0.526-0.492-0.951-1.031-0.951h-4.835
		c-0.597,0-1.11,0.513-1.11,1.109c0,6.283,3.418,13.715,19.739,13.715c11.814,0,18.628-4.639,18.628-12.764
		c0-8.055-5.504-10.217-16.964-11.732c-11.58-1.531-12.684-2.281-12.684-4.993c0-2.239,0.936-5.232,9.513-5.232
		c7.661,0,10.492,1.652,11.653,6.817c0.102,0.486,0.529,0.872,1.03,0.872h4.836c0.298,0,0.586-0.183,0.792-0.396
		c0.203-0.228,0.346-0.485,0.317-0.792C661.852,592.805,655.919,588.621,643.971,588.621L643.971,588.621z M515.393,599.48
		c-0.158,0-0.333,0-0.476,0.079l-7.61,4.439c-0.285,0.162-0.476,0.464-0.476,0.792v8.721c0,0.328,0.19,0.629,0.476,0.793l7.61,4.359
		c0.285,0.165,0.59,0.165,0.872,0l7.61-4.359c0.282-0.163,0.476-0.465,0.476-0.793v-8.721c0-0.328-0.193-0.629-0.476-0.792
		l-7.61-4.439C515.648,599.476,515.551,599.48,515.393,599.48z"/>
</g>
</svg>
